<svg version="1.1" id="Layer_1" xmlns="http://www.w3.org/2000/svg" xmlns:xlink="http://www.w3.org/1999/xlink" x="0px" y="0px"
	 width="100%" viewBox="0 0 500 500" enable-background="new 0 0 500 500" xml:space="preserve">
<path fill="#FFFFFF" opacity="1.000000" stroke="none" 
	d="
M501.000000,195.000000 
	C501.000000,297.333313 501.000000,399.166626 501.000000,500.999939 
	C334.333405,500.999969 167.666794,500.999969 1.000144,501.000000 
	C1.000096,334.333435 1.000096,167.666870 1.000048,1.000234 
	C167.666519,1.000156 334.333038,1.000156 500.999786,1.000078 
	C501.000000,65.500000 501.000000,130.000000 501.000000,195.000000 
M425.210175,176.271912 
	C424.452942,174.444702 423.695709,172.617493 422.808716,170.477219 
	C424.689423,169.494278 426.433258,168.586411 428.173950,167.672531 
	C437.986115,162.521072 439.831360,155.273422 433.972992,145.906113 
	C422.852509,128.124908 409.598969,112.112068 393.657776,98.517715 
	C339.715027,52.516281 277.640289,35.501774 208.114578,49.252712 
	C147.902710,61.161541 101.649666,94.401634 68.475815,145.945099 
	C62.662018,154.978210 64.451508,161.797226 73.953499,166.930466 
	C75.798508,167.927185 77.628273,168.952118 79.607170,170.042328 
	C67.198616,197.317490 61.327068,225.276306 61.822380,254.785126 
	C62.318192,284.323547 69.677338,311.926880 82.740730,338.448883 
	C79.434952,340.194794 76.344666,341.786407 73.291870,343.446960 
	C64.801155,348.065430 62.815514,355.354309 67.988289,363.519196 
	C81.467293,384.794861 97.672974,403.669891 117.694374,419.081451 
	C166.886475,456.947266 222.391449,472.279755 283.703400,462.734863 
	C348.628052,452.627533 398.822571,418.907501 434.311493,363.505981 
	C439.689758,355.109985 437.814911,347.883240 429.123993,343.083099 
	C425.981689,341.347534 422.826691,339.634979 419.833038,337.997040 
	C445.112671,284.730347 447.491211,231.264008 425.210175,176.271912 
M433.489166,406.019470 
	C428.493134,411.346863 423.591736,416.767273 418.473999,421.975128 
	C413.480957,427.056061 408.266937,431.919800 403.149902,436.878876 
	C403.542603,437.223633 403.935303,437.568359 404.328033,437.913086 
	C427.758514,418.099152 447.830353,395.536041 461.714905,367.882568 
	C452.473969,380.424988 443.233032,392.967407 433.489166,406.019470 
M320.372742,480.366028 
	C308.943542,483.218781 297.514374,486.071533 285.910095,488.967957 
	C298.047760,489.153717 309.462585,486.362640 320.580750,482.084747 
	C320.913849,481.956604 320.905365,480.940613 320.372742,480.366028 
M184.430984,481.247894 
	C183.167618,480.967224 181.904236,480.686554 180.640869,480.405884 
	C191.761215,486.214142 203.435745,489.180786 216.864151,488.937531 
	C205.596741,486.315674 195.362396,483.934235 184.430984,481.247894 
M329.969269,477.508484 
	C328.079742,478.150452 326.190216,478.792419 324.300690,479.434387 
	C324.548370,480.088379 324.796051,480.742401 325.043732,481.396393 
	C332.321686,478.601379 339.599670,475.806366 346.877625,473.011383 
	C346.650574,472.417847 346.423523,471.824341 346.196472,471.230804 
	C341.025513,473.224091 335.854553,475.217346 329.969269,477.508484 
M164.761398,474.814941 
	C161.783707,473.635223 158.806015,472.455505 155.828323,471.275787 
	C155.607864,471.855286 155.387405,472.434784 155.166946,473.014282 
	C161.442108,475.373169 167.717255,477.732056 173.992416,480.090912 
	C174.183594,479.585266 174.374771,479.079590 174.565964,478.573914 
	C171.546890,477.383423 168.527832,476.192963 164.761398,474.814941 
M144.657501,465.846771 
	C142.043243,464.632080 139.429001,463.417358 136.814743,462.202637 
	C136.589310,462.713013 136.363861,463.223358 136.138428,463.733704 
	C141.068207,466.177887 145.997986,468.622070 150.927765,471.066254 
	C151.188019,470.539581 151.448288,470.012909 151.708542,469.486206 
	C149.583267,468.373474 147.458008,467.260742 144.657501,465.846771 
M354.683441,467.140472 
	C353.186066,467.954315 351.688721,468.768127 350.191376,469.581970 
	C350.468475,470.102814 350.745575,470.623688 351.022675,471.144531 
	C355.306061,468.990479 359.589447,466.836456 363.872833,464.682404 
	C363.603760,464.124603 363.334686,463.566833 363.065613,463.009033 
	C360.496399,464.285919 357.927216,465.562836 354.683441,467.140472 
M76.501717,415.002777 
	C74.686256,413.346008 72.870789,411.689209 71.055328,410.032440 
	C71.014656,410.115845 70.973984,410.199280 70.933311,410.282684 
	C74.184120,413.558014 77.434921,416.833313 80.685722,420.108612 
	C80.822708,420.028168 80.959702,419.947693 81.096687,419.867249 
	C79.730324,418.411102 78.363968,416.954956 76.501717,415.002777 
M89.963539,431.347687 
	C90.520676,431.098694 91.077812,430.849670 91.634964,430.600677 
	C88.826973,427.703644 86.018982,424.806641 83.210991,421.909637 
	C82.649742,422.486023 82.088493,423.062408 81.527245,423.638794 
	C84.167526,426.066071 86.807816,428.493347 89.963539,431.347687 
M386.938538,448.450867 
	C385.342590,449.548767 383.746613,450.646667 382.150635,451.744568 
	C382.523132,452.217072 382.895599,452.689575 383.268066,453.162109 
	C386.873291,450.638489 390.478516,448.114868 394.083740,445.591248 
	C393.742737,445.112854 393.401703,444.634430 393.060699,444.156036 
	C391.204529,445.439484 389.348389,446.722931 386.938538,448.450867 
M121.356499,454.457397 
	C124.834930,456.791321 128.313354,459.125244 131.791779,461.459167 
	C132.180618,460.797119 132.569473,460.135071 132.958313,459.473022 
	C129.092239,457.583893 125.226173,455.694794 121.356499,454.457397 
M465.563507,361.875214 
	C467.036438,358.870850 468.509369,355.866455 469.982330,352.862061 
	C469.480316,352.628662 468.978333,352.395233 468.476349,352.161835 
	C466.636749,355.824554 464.797150,359.487274 462.957581,363.149994 
	C463.312164,363.358582 463.666748,363.567200 464.021362,363.775787 
	C464.423065,363.341766 464.824799,362.907745 465.563507,361.875214 
M109.378326,445.795105 
	C111.822021,447.913666 114.265724,450.032196 116.709427,452.150726 
	C117.105743,451.611237 117.502052,451.071777 117.898369,450.532288 
	C115.210526,448.805054 112.522682,447.077789 109.378326,445.795105 
M371.555115,458.203461 
	C369.496399,459.442810 367.437683,460.682159 365.378967,461.921509 
	C365.605286,462.299988 365.831604,462.678467 366.057922,463.056946 
	C368.980316,461.527954 371.902710,459.998993 374.825104,458.470001 
	C374.655914,458.070648 374.486725,457.671295 374.317535,457.271912 
	C373.605499,457.490936 372.893433,457.709961 371.555115,458.203461 
M96.028030,433.535126 
	C95.239014,433.153992 94.450005,432.772827 93.152786,432.146179 
	C94.962074,434.586823 96.294800,436.384583 97.627518,438.182373 
	C98.050316,437.802185 98.473106,437.421997 98.895897,437.041809 
	C98.101929,436.033051 97.307968,435.024261 96.028030,433.535126 
M43.545006,374.938232 
	C44.362297,375.881500 45.179592,376.824799 45.996887,377.768066 
	C46.340687,377.448792 46.684490,377.129547 47.028290,376.810272 
	C45.779507,374.936615 44.530727,373.062927 43.281948,371.189240 
	C42.937443,371.378784 42.592937,371.568298 42.248428,371.757843 
	C42.559082,372.625183 42.869736,373.492554 43.545006,374.938232 
M35.153385,359.347351 
	C35.764965,360.120331 36.376545,360.893341 36.988125,361.666321 
	C37.298862,361.463531 37.609596,361.260712 37.920330,361.057922 
	C37.064281,359.443176 36.208233,357.828430 35.352188,356.213684 
	C35.000607,356.367828 34.649025,356.521973 34.297443,356.676147 
	C34.497341,357.367828 34.697243,358.059479 35.153385,359.347351 
M376.866699,456.657104 
	C378.209808,455.897369 379.552917,455.137604 380.896057,454.377869 
	C380.571045,453.913635 380.246063,453.449402 379.921082,452.985168 
	C378.748627,454.066742 377.576202,455.148315 376.866699,456.657104 
M66.458580,404.354919 
	C66.675690,405.451782 66.892799,406.548645 67.109917,407.645477 
	C67.668152,407.470123 68.226395,407.294769 68.784630,407.119385 
	C68.193726,406.291718 67.602814,405.464020 66.458580,404.354919 
M101.567665,440.640869 
	C101.835159,440.126801 102.102654,439.612732 102.370132,439.098663 
	C101.834785,438.875549 101.299431,438.652405 100.764084,438.429291 
	C100.857040,439.076019 100.949997,439.722748 101.567665,440.640869 
M396.378693,443.670776 
	C396.780823,443.073822 397.182953,442.476868 397.585083,441.879852 
	C397.194397,441.738647 396.803711,441.597443 396.412994,441.456238 
	C396.198547,442.182892 395.984100,442.909515 396.378693,443.670776 
M401.641876,439.431793 
	C401.127716,439.164398 400.613556,438.896973 400.099396,438.629578 
	C399.875946,439.164764 399.652496,439.699982 399.429047,440.235168 
	C400.076111,440.142242 400.723145,440.049286 401.641876,439.431793 
M61.332932,400.377625 
	C61.929218,400.780243 62.525509,401.182892 63.121803,401.585510 
	C63.262993,401.194641 63.404186,400.803802 63.545376,400.412933 
	C62.818794,400.198181 62.092213,399.983398 61.332932,400.377625 
M54.405323,388.090790 
	C53.752048,387.990875 53.098774,387.890961 52.445499,387.791077 
	C52.669933,388.330536 52.894367,388.869995 53.118809,389.409454 
	C53.638390,389.146179 54.157967,388.882874 54.405323,388.090790 
M106.570091,443.298920 
	C106.295746,443.011871 106.021400,442.724823 105.747063,442.437775 
	C105.628181,442.551514 105.509300,442.665253 105.390411,442.778992 
	C105.664894,443.065796 105.939369,443.352600 106.570091,443.298920 
M55.389000,392.203735 
	C55.785091,392.208099 56.181183,392.212433 56.577274,392.216797 
	C56.578568,392.052338 56.591011,391.744965 56.579548,391.744110 
	C56.185524,391.713348 55.789238,391.711700 55.389000,392.203735 
M58.427303,395.703583 
	C58.701191,395.990753 58.975075,396.277924 59.248959,396.565094 
	C59.367817,396.451416 59.596306,396.245239 59.589695,396.237427 
	C59.333916,395.934296 59.056667,395.649292 58.427303,395.703583 
M31.482519,349.591858 
	C31.482519,349.591858 31.414108,349.477295 31.482519,349.591858 
M32.591808,352.515900 
	C32.591808,352.515900 32.477840,352.584625 32.591808,352.515900 
z"/>
<path fill="#0499B3" opacity="1.000000" stroke="none" 
	d="
M425.389862,176.610809 
	C447.491211,231.264008 445.112671,284.730347 419.833038,337.997040 
	C422.826691,339.634979 425.981689,341.347534 429.123993,343.083099 
	C437.814911,347.883240 439.689758,355.109985 434.311493,363.505981 
	C398.822571,418.907501 348.628052,452.627533 283.703400,462.734863 
	C222.391449,472.279755 166.886475,456.947266 117.694374,419.081451 
	C97.672974,403.669891 81.467293,384.794861 67.988289,363.519196 
	C62.815514,355.354309 64.801155,348.065430 73.291870,343.446960 
	C76.344666,341.786407 79.434952,340.194794 82.740730,338.448883 
	C69.677338,311.926880 62.318192,284.323547 61.822380,254.785126 
	C61.327068,225.276306 67.198616,197.317490 79.607170,170.042328 
	C77.628273,168.952118 75.798508,167.927185 73.953499,166.930466 
	C64.451508,161.797226 62.662018,154.978210 68.475815,145.945099 
	C101.649666,94.401634 147.902710,61.161541 208.114578,49.252712 
	C277.640289,35.501774 339.715027,52.516281 393.657776,98.517715 
	C409.598969,112.112068 422.852509,128.124908 433.972992,145.906113 
	C439.831360,155.273422 437.986115,162.521072 428.173950,167.672531 
	C426.433258,168.586411 424.689423,169.494278 422.808716,170.477219 
	C423.695709,172.617493 424.452942,174.444702 425.389862,176.610809 
M78.380707,316.068970 
	C81.295891,322.718018 84.211075,329.367035 87.160858,336.094971 
	C88.335106,335.566681 88.947212,335.317474 89.536354,335.022430 
	C103.148254,328.204437 106.379967,329.174042 114.988472,341.599670 
	C143.930557,383.375031 183.500946,407.862946 234.182465,413.139984 
	C280.913879,418.005737 322.322510,404.602936 358.292755,374.448181 
	C370.898041,363.880829 381.175446,351.270752 390.207947,337.560669 
	C395.336182,329.776733 401.155762,328.508636 409.499481,332.735870 
	C411.222626,333.608826 412.974731,334.424500 414.680847,335.250793 
	C443.341400,285.007935 440.417725,213.799118 417.439026,173.229919 
	C414.338531,174.808624 411.275940,176.482330 408.118683,177.952774 
	C400.615295,181.447281 395.356567,179.795349 390.473846,172.988297 
	C385.337494,165.827591 380.297577,158.547943 374.586761,151.856903 
	C329.720520,99.289742 251.999542,81.098244 188.464935,108.157639 
	C156.632889,121.714920 131.172668,142.868271 112.451698,172.064392 
	C107.624001,179.593399 101.188942,181.131836 93.147827,177.051788 
	C90.344238,175.629227 87.558098,174.172287 84.773788,172.736099 
	C66.916435,204.730774 58.152500,262.671265 78.380707,316.068970 
M172.685013,90.306686 
	C176.743500,88.509666 180.802002,86.712646 185.160019,84.782990 
	C184.224762,83.114784 183.542542,81.897911 182.792099,80.559341 
	C177.768478,82.635590 173.087479,84.570229 168.406479,86.504875 
	C168.069397,85.778542 167.732300,85.052208 167.395218,84.325874 
	C172.043198,82.047173 176.691177,79.768471 181.597229,77.363243 
	C180.927872,75.835854 180.348267,74.513290 179.694183,73.020782 
	C173.254684,75.902870 167.100861,78.657089 160.670837,81.534935 
	C163.600754,88.086868 166.346298,94.226509 169.205826,100.621040 
	C175.877060,97.646080 182.000626,94.915344 188.445648,92.041260 
	C187.405090,90.262207 186.706314,89.067505 185.961670,87.794395 
	C181.655792,89.668266 177.764648,91.511284 173.756973,93.051010 
	C171.255005,94.012253 169.962372,93.480972 172.685013,90.306686 
M401.503845,361.924774 
	C398.830353,361.591034 399.162567,360.316956 400.389404,358.609039 
	C402.719116,355.365631 404.986664,352.077148 407.244843,348.783295 
	C407.490906,348.424377 407.505829,347.907013 407.682739,347.264099 
	C406.399323,346.526276 405.186584,345.829102 403.847015,345.058990 
	C399.851501,350.767578 396.068695,356.172302 392.013397,361.966339 
	C395.679016,364.539001 399.010254,366.876984 402.553040,369.363464 
	C404.459930,366.702545 406.115082,364.426239 407.735229,362.125336 
	C411.177856,357.236267 411.170380,357.230988 413.895599,358.353271 
	C411.009338,362.594025 408.153351,366.790314 405.137817,371.220947 
	C406.737640,372.198975 407.947449,372.938599 409.322296,373.779083 
	C413.367523,367.976349 417.215332,362.456757 421.155731,356.804352 
	C417.397125,354.177765 414.150726,351.909119 410.628174,349.447479 
	C407.612610,353.654846 404.817749,357.554260 401.503845,361.924774 
M179.561600,414.953461 
	C176.103714,413.471741 172.645828,411.989990 168.837112,410.357941 
	C165.927948,416.958099 163.229767,423.079620 160.434387,429.421631 
	C167.144028,432.381042 173.191467,435.048340 179.497604,437.829742 
	C180.169510,436.212524 180.715240,434.898956 181.353256,433.363281 
	C176.434738,431.082153 171.815842,428.940002 167.196945,426.797852 
	C167.359421,426.246307 167.521881,425.694794 167.684357,425.143250 
	C173.201843,424.435913 177.354752,429.611725 183.012650,429.970123 
	C183.453323,428.764435 183.929016,427.462952 184.483139,425.946869 
	C181.559479,424.611664 179.014420,423.431427 176.454620,422.284027 
	C171.075851,419.873047 171.072693,419.880096 171.804718,417.027588 
	C176.487305,419.054962 181.146591,421.072235 186.085770,423.210693 
	C186.757233,421.425079 187.252213,420.108795 187.793091,418.670441 
	C185.082031,417.427124 182.677231,416.324280 179.561600,414.953461 
M412.531860,159.236633 
	C412.415741,158.017487 412.694122,156.551422 412.113220,155.623138 
	C409.931274,152.136520 407.468994,148.825348 404.685791,144.838181 
	C409.355011,143.354645 409.651123,147.402832 411.213379,149.105362 
	C413.186676,151.255859 414.714966,153.814743 416.619720,156.453003 
	C418.049622,155.284103 419.135956,154.396057 420.379242,153.379700 
	C416.373688,147.682526 412.570648,142.273438 408.506744,136.493256 
	C404.833069,139.120789 401.434540,141.551529 398.042786,143.977432 
	C401.235626,148.673660 404.058197,152.825317 406.880798,156.976959 
	C406.442322,157.324051 406.003876,157.671127 405.565399,158.018219 
	C400.516541,155.663528 399.435364,149.490280 395.168274,145.966522 
	C394.075562,146.767944 392.924042,147.612488 391.476959,148.673782 
	C395.509827,154.420425 399.376709,159.930618 403.389679,165.648911 
	C406.565552,163.444138 409.282440,161.557999 412.531860,159.236633 
M118.959198,399.558533 
	C123.613029,395.118561 128.266861,390.678589 132.151474,386.972473 
	C126.875046,381.268738 122.287613,376.309784 118.768173,372.505310 
	C113.616203,376.969177 108.546280,381.361969 103.006706,386.161713 
	C108.375458,390.980621 113.363274,395.457611 118.959198,399.558533 
M105.901108,127.525612 
	C109.886055,131.657883 113.871002,135.790146 117.852516,139.918854 
	C123.085945,134.586166 127.701271,129.883301 132.310715,125.186424 
	C127.620026,120.684921 122.759247,116.020203 117.183487,110.669327 
	C113.462914,114.574890 109.177017,118.924377 105.136795,123.491211 
	C104.589165,124.110214 105.273155,125.818825 105.901108,127.525612 
M140.776855,402.477600 
	C139.587479,401.518585 138.398102,400.559570 137.031464,399.457642 
	C134.408401,403.325378 132.195190,406.588745 129.789871,410.135437 
	C135.692856,414.161469 141.248322,417.950470 147.092865,421.936646 
	C151.175919,415.932678 154.892075,410.468262 158.875214,404.611237 
	C152.930161,400.553833 147.351654,396.746613 141.553589,392.789551 
	C140.576111,394.356934 139.837006,395.542114 138.994431,396.893188 
	C143.469177,400.090149 147.594421,403.037384 151.850555,406.078125 
	C149.635162,409.270111 147.752014,411.983398 145.696152,414.945557 
	C142.619736,412.821747 139.794144,410.871063 136.827805,408.823242 
	C138.175934,406.725006 139.333618,404.923157 140.776855,402.477600 
M140.256958,93.774490 
	C137.031006,96.007973 133.805069,98.241463 130.273407,100.686607 
	C131.473862,102.193314 132.338791,103.278885 133.272629,104.450928 
	C137.740784,101.465309 141.850113,98.719460 146.270508,95.765747 
	C148.354797,98.828033 150.270081,101.641983 152.382751,104.745956 
	C149.254242,106.895042 146.430176,108.834999 143.520142,110.834015 
	C141.831512,108.643562 140.336380,106.704102 138.673264,104.546730 
	C137.304779,105.557541 136.155228,106.406654 134.834442,107.382240 
	C137.355957,110.981415 139.698578,114.325233 142.158905,117.837067 
	C148.162643,113.729317 153.704910,109.937294 159.344681,106.078560 
	C155.224960,100.039162 151.495773,94.572319 147.564224,88.808792 
	C145.170227,90.422180 143.001511,91.883728 140.256958,93.774490 
M390.028290,383.418884 
	C390.199829,384.711182 390.948059,386.336121 390.431610,387.231598 
	C389.042725,389.639771 387.113678,391.736389 385.348022,394.022797 
	C382.401428,391.285950 380.601532,389.614166 378.604858,387.759644 
	C377.459534,389.113312 376.539185,390.201050 375.534393,391.388580 
	C378.613831,394.399567 381.451447,397.174072 384.245270,399.905762 
	C389.009125,395.008148 393.730652,390.154053 398.537659,385.212036 
	C394.019836,380.847534 389.142059,376.135345 384.382965,371.537781 
	C379.867401,376.226013 375.160767,381.112610 370.298218,386.161102 
	C371.095642,386.837341 372.194397,387.769104 373.948059,389.256195 
	C377.377899,385.265869 380.637604,381.473480 384.357452,377.145752 
	C386.447662,379.480621 387.991089,381.204681 390.028290,383.418884 
M386.076599,119.411537 
	C388.235931,120.897461 390.395294,122.383385 392.554626,123.869308 
	C391.861664,124.202019 391.168671,124.534729 390.475677,124.867439 
	C388.227325,127.247185 385.978973,129.626938 383.996643,131.725098 
	C381.577637,129.559235 379.051697,127.297646 376.461243,124.978294 
	C378.274994,122.941170 379.793488,121.235687 381.803589,118.978058 
	C380.636505,117.886879 379.608734,116.925972 379.121857,116.470757 
	C375.518188,119.541595 372.401031,122.197884 369.919861,124.312202 
	C374.796783,129.612061 379.267365,134.470383 383.152802,138.692764 
	C388.220764,133.857086 393.083557,129.217178 396.977509,125.501694 
	C392.466827,120.780128 387.816589,115.912483 383.071777,110.945847 
	C382.432861,111.659882 381.584442,112.608002 379.845947,114.550842 
	C381.870361,116.094162 383.717072,117.502029 386.076599,119.411537 
M346.585327,407.874878 
	C346.502808,406.469574 346.420319,405.064301 346.337006,403.645355 
	C341.977509,404.104126 341.145630,406.824219 341.412994,410.069244 
	C341.780396,414.529144 339.772186,416.800262 335.362610,417.382416 
	C334.132843,415.341522 332.943085,413.367096 331.605103,411.146606 
	C330.226715,411.942078 329.004364,412.647522 327.424744,413.559143 
	C330.810242,419.710022 334.049835,425.595825 337.405945,431.693329 
	C339.021973,430.740570 340.120422,430.092987 341.448120,429.310242 
	C340.293488,426.906342 339.235931,424.704590 338.261688,422.676239 
	C341.375916,419.477020 344.538269,418.840271 347.992004,421.820251 
	C350.679626,424.139221 353.319580,423.982361 356.017426,421.185089 
	C352.289062,417.511322 344.290100,416.859863 346.585327,407.874878 
M92.821007,373.106201 
	C94.192192,372.557281 95.563370,372.008392 97.346024,371.294769 
	C94.085556,366.583344 91.208351,362.425751 88.132286,357.980804 
	C91.342064,355.728210 94.120552,353.778320 96.991730,351.763367 
	C100.299210,356.302277 103.283783,360.398041 106.452591,364.746613 
	C107.931541,363.479034 108.987007,362.574402 110.126106,361.598083 
	C106.084930,355.866730 102.278397,350.468170 98.252548,344.758545 
	C92.496407,348.802155 86.996834,352.665558 81.133293,356.784637 
	C85.032562,362.345825 88.635208,367.484009 92.821007,373.106201 
M83.606621,151.052444 
	C83.602715,152.374084 83.047485,154.417297 83.682617,154.902573 
	C88.519005,158.597855 93.587929,161.988800 98.921402,165.709579 
	C103.050514,159.822144 106.908493,154.321274 110.946907,148.563141 
	C109.240891,147.509918 108.054184,146.777283 106.768616,145.983627 
	C103.638824,150.329742 100.741936,154.352417 97.629356,158.674622 
	C94.575363,156.544556 91.769402,154.587494 88.777077,152.500443 
	C91.822563,148.038345 94.695190,143.829514 97.739365,139.369339 
	C96.234489,138.404694 95.045303,137.642426 93.673584,136.763153 
	C90.317390,141.521133 87.164200,145.991318 83.606621,151.052444 
M350.612396,87.275787 
	C346.557983,89.316086 342.732391,93.840126 337.825134,88.096321 
	C338.795593,86.114258 339.872070,83.915688 341.082031,81.444511 
	C339.657379,80.749435 338.396362,80.134193 336.777130,79.344170 
	C333.406097,85.535316 330.191650,91.438904 326.845245,97.584892 
	C328.547424,98.323219 329.853912,98.889915 331.265442,99.502159 
	C332.693024,97.140099 333.939850,95.077141 335.005463,93.313980 
	C340.094696,94.420486 341.606537,97.369904 341.031281,101.816948 
	C340.584412,105.271347 342.348694,106.913528 346.543579,107.044579 
	C343.267029,97.907845 348.161377,93.017906 356.371124,89.694710 
	C353.954315,88.478127 352.632141,87.812553 350.612396,87.275787 
M269.491333,62.105549 
	C268.066864,61.509029 266.642395,60.912510 264.816162,60.147747 
	C264.410248,63.495762 264.122620,65.868172 263.877411,67.890701 
	C260.009369,67.890701 256.735840,67.890701 253.247620,67.890701 
	C253.247620,65.082916 253.247620,62.668194 253.247620,59.930855 
	C251.532211,60.074772 250.143082,60.191319 248.451996,60.333195 
	C248.451996,64.617271 248.451996,68.528870 248.451996,72.740791 
	C253.627960,73.005280 258.672241,73.263039 263.941956,73.532318 
	C263.941956,76.351631 263.941956,78.643074 263.941956,81.208572 
	C265.701721,81.208572 267.195282,81.208572 269.499084,81.208572 
	C269.499084,74.817947 269.499084,68.856712 269.491333,62.105549 
M256.348541,437.766357 
	C249.704346,438.158997 254.915466,432.025635 251.535568,429.982849 
	C250.795624,430.054047 249.412994,430.187073 248.278351,430.296234 
	C248.278351,434.665161 248.278351,438.592224 248.278351,442.810059 
	C253.694168,442.810059 258.734253,442.810059 263.858093,442.810059 
	C264.154114,445.364441 264.414795,447.613983 264.712646,450.184479 
	C266.463837,450.032440 267.845978,449.912445 268.812653,449.828522 
	C268.812653,442.783020 268.812653,436.191010 268.812653,429.181061 
	C266.847778,429.331818 265.469879,429.437561 263.835815,429.562958 
	C263.835815,432.270966 263.835815,434.558746 263.835815,437.154358 
	C261.457733,437.357239 259.337738,437.538086 256.348541,437.766357 
M288.729248,79.363808 
	C289.205170,78.607216 289.769043,77.890831 290.137634,77.085136 
	C290.780640,75.679550 291.676575,74.244812 291.778381,72.774643 
	C291.895081,71.089081 290.865265,69.310455 291.037781,67.645233 
	C291.405304,64.098053 292.228088,60.598030 292.931763,56.705669 
	C290.215973,56.349854 288.017456,56.061810 286.620605,55.878796 
	C285.945129,62.227921 285.765381,68.031136 284.609955,73.633133 
	C283.428680,79.360779 281.290497,84.891090 279.516296,90.687172 
	C281.528351,91.086388 283.587524,91.494949 286.094177,91.992294 
	C286.934631,87.873375 287.720184,84.023468 288.729248,79.363808 
M232.521042,70.932762 
	C232.521042,65.071190 232.521042,59.209614 232.521042,53.148666 
	C230.020004,53.597343 227.964813,53.966034 226.285141,54.267365 
	C224.671066,60.210381 229.423721,65.997086 225.088547,71.350502 
	C224.743790,71.776260 225.023529,73.421417 225.466354,73.660568 
	C229.787537,75.994301 227.953491,80.356468 228.899567,83.761765 
	C229.406128,85.585075 229.438705,87.540070 229.715500,89.668785 
	C232.413696,89.327980 234.499756,89.064484 236.235367,88.845261 
	C235.011993,82.993164 233.843887,77.405350 232.521042,70.932762 
M286.390808,420.253693 
	C284.027405,420.102509 281.664032,419.951294 278.319641,419.737335 
	C284.910553,431.446686 287.036407,442.939789 285.476227,455.610229 
	C288.627533,454.879120 290.787445,454.377991 292.533051,453.973022 
	C293.155304,447.813751 288.357117,442.582672 292.024597,436.853821 
	C292.341156,436.359344 291.332855,434.920807 290.800140,434.001831 
	C290.063599,432.731171 288.820709,431.638153 288.457550,430.290405 
	C287.640778,427.259094 287.231903,424.117828 286.390808,420.253693 
M224.968643,440.243469 
	C225.543686,442.083984 226.599121,443.926544 226.591171,445.764526 
	C226.575851,449.312836 225.960297,452.858521 225.559082,456.738953 
	C228.439102,456.910004 230.506531,457.032806 233.084290,457.185913 
	C230.214355,444.780609 231.970856,433.289337 237.163254,421.858948 
	C234.029236,421.551636 231.819580,421.334930 230.577820,421.213165 
	C228.535858,427.781006 226.731079,433.585999 224.968643,440.243469 
M364.990784,407.549866 
	C366.169312,409.104584 367.347870,410.659302 368.711731,412.458466 
	C370.145508,411.381470 371.275696,410.532501 372.653015,409.497925 
	C368.443268,403.846039 364.431763,398.460358 360.230286,392.819641 
	C358.808075,394.011169 357.739349,394.906555 356.420807,396.011200 
	C359.267090,399.845459 361.913605,403.410675 364.990784,407.549866 
M360.135040,117.162933 
	C364.191650,111.954613 368.248291,106.746284 372.504272,101.282036 
	C370.958557,100.155037 369.814819,99.321106 368.374268,98.270782 
	C364.232849,103.837975 360.278748,109.153366 356.112122,114.754478 
	C357.315338,115.685989 358.333618,116.474289 360.135040,117.162933 
z"/>
<path fill="#F6F6F6" opacity="1.000000" stroke="none" 
	d="
M433.740631,405.764648 
	C443.233032,392.967407 452.473969,380.424988 461.714905,367.882568 
	C447.830353,395.536041 427.758514,418.099152 404.328033,437.913086 
	C403.935303,437.568359 403.542603,437.223633 403.149902,436.878876 
	C408.266937,431.919800 413.480957,427.056061 418.473999,421.975128 
	C423.591736,416.767273 428.493134,411.346863 433.740631,405.764648 
z"/>
<path fill="#F6F6F6" opacity="1.000000" stroke="none" 
	d="
M320.714447,480.352295 
	C320.905365,480.940613 320.913849,481.956604 320.580750,482.084747 
	C309.462585,486.362640 298.047760,489.153717 285.910095,488.967957 
	C297.514374,486.071533 308.943542,483.218781 320.714447,480.352295 
z"/>
<path fill="#F6F6F6" opacity="1.000000" stroke="none" 
	d="
M184.779510,481.400330 
	C195.362396,483.934235 205.596741,486.315674 216.864151,488.937531 
	C203.435745,489.180786 191.761215,486.214142 180.640869,480.405884 
	C181.904236,480.686554 183.167618,480.967224 184.779510,481.400330 
z"/>
<path fill="#F6F6F6" opacity="1.000000" stroke="none" 
	d="
M330.326416,477.359558 
	C335.854553,475.217346 341.025513,473.224091 346.196472,471.230804 
	C346.423523,471.824341 346.650574,472.417847 346.877625,473.011383 
	C339.599670,475.806366 332.321686,478.601379 325.043732,481.396393 
	C324.796051,480.742401 324.548370,480.088379 324.300690,479.434387 
	C326.190216,478.792419 328.079742,478.150452 330.326416,477.359558 
z"/>
<path fill="#F6F6F6" opacity="1.000000" stroke="none" 
	d="
M165.135071,474.908691 
	C168.527832,476.192963 171.546890,477.383423 174.565964,478.573914 
	C174.374771,479.079590 174.183594,479.585266 173.992416,480.090912 
	C167.717255,477.732056 161.442108,475.373169 155.166946,473.014282 
	C155.387405,472.434784 155.607864,471.855286 155.828323,471.275787 
	C158.806015,472.455505 161.783707,473.635223 165.135071,474.908691 
z"/>
<path fill="#F6F6F6" opacity="1.000000" stroke="none" 
	d="
M144.995117,465.997375 
	C147.458008,467.260742 149.583267,468.373474 151.708542,469.486206 
	C151.448288,470.012909 151.188019,470.539581 150.927765,471.066254 
	C145.997986,468.622070 141.068207,466.177887 136.138428,463.733704 
	C136.363861,463.223358 136.589310,462.713013 136.814743,462.202637 
	C139.429001,463.417358 142.043243,464.632080 144.995117,465.997375 
z"/>
<path fill="#F6F6F6" opacity="1.000000" stroke="none" 
	d="
M355.020752,466.990112 
	C357.927216,465.562836 360.496399,464.285919 363.065613,463.009033 
	C363.334686,463.566833 363.603760,464.124603 363.872833,464.682404 
	C359.589447,466.836456 355.306061,468.990479 351.022675,471.144531 
	C350.745575,470.623688 350.468475,470.102814 350.191376,469.581970 
	C351.688721,468.768127 353.186066,467.954315 355.020752,466.990112 
z"/>
<path fill="#F6F6F6" opacity="1.000000" stroke="none" 
	d="
M76.749664,415.250793 
	C78.363968,416.954956 79.730324,418.411102 81.096687,419.867249 
	C80.959702,419.947693 80.822708,420.028168 80.685722,420.108612 
	C77.434921,416.833313 74.184120,413.558014 70.933311,410.282684 
	C70.973984,410.199280 71.014656,410.115845 71.055328,410.032440 
	C72.870789,411.689209 74.686256,413.346008 76.749664,415.250793 
z"/>
<path fill="#F6F6F6" opacity="1.000000" stroke="none" 
	d="
M89.705818,431.134155 
	C86.807816,428.493347 84.167526,426.066071 81.527245,423.638794 
	C82.088493,423.062408 82.649742,422.486023 83.210991,421.909637 
	C86.018982,424.806641 88.826973,427.703644 91.634956,430.600677 
	C91.077812,430.849670 90.520676,431.098694 89.705818,431.134155 
z"/>
<path fill="#F6F6F6" opacity="1.000000" stroke="none" 
	d="
M387.215393,448.228638 
	C389.348389,446.722931 391.204529,445.439484 393.060699,444.156036 
	C393.401703,444.634430 393.742737,445.112854 394.083740,445.591248 
	C390.478516,448.114868 386.873291,450.638489 383.268066,453.162109 
	C382.895599,452.689575 382.523132,452.217072 382.150635,451.744568 
	C383.746613,450.646667 385.342590,449.548767 387.215393,448.228638 
z"/>
<path fill="#F6F6F6" opacity="1.000000" stroke="none" 
	d="
M121.358299,454.131531 
	C125.226173,455.694794 129.092239,457.583893 132.958313,459.473022 
	C132.569473,460.135071 132.180618,460.797119 131.791779,461.459167 
	C128.313354,459.125244 124.834930,456.791321 121.358299,454.131531 
z"/>
<path fill="#F6F6F6" opacity="1.000000" stroke="none" 
	d="
M465.395020,362.174469 
	C464.824799,362.907745 464.423065,363.341766 464.021362,363.775787 
	C463.666748,363.567200 463.312164,363.358582 462.957581,363.149994 
	C464.797150,359.487274 466.636749,355.824554 468.476349,352.161835 
	C468.978333,352.395233 469.480316,352.628662 469.982330,352.862061 
	C468.509369,355.866455 467.036438,358.870850 465.395020,362.174469 
z"/>
<path fill="#F6F6F6" opacity="1.000000" stroke="none" 
	d="
M109.606583,445.572815 
	C112.522682,447.077789 115.210526,448.805054 117.898369,450.532288 
	C117.502052,451.071777 117.105743,451.611237 116.709427,452.150726 
	C114.265724,450.032196 111.822021,447.913666 109.606583,445.572815 
z"/>
<path fill="#F6F6F6" opacity="1.000000" stroke="none" 
	d="
M371.868256,458.066223 
	C372.893433,457.709961 373.605499,457.490936 374.317535,457.271912 
	C374.486725,457.671295 374.655914,458.070648 374.825104,458.470001 
	C371.902710,459.998993 368.980316,461.527954 366.057922,463.056946 
	C365.831604,462.678467 365.605286,462.299988 365.378967,461.921509 
	C367.437683,460.682159 369.496399,459.442810 371.868256,458.066223 
z"/>
<path fill="#F6F6F6" opacity="1.000000" stroke="none" 
	d="
M96.271011,433.775330 
	C97.307968,435.024261 98.101929,436.033051 98.895897,437.041809 
	C98.473106,437.421997 98.050316,437.802185 97.627518,438.182373 
	C96.294800,436.384583 94.962074,434.586823 93.152786,432.146179 
	C94.450005,432.772827 95.239014,433.153992 96.271011,433.775330 
z"/>
<path fill="#F6F6F6" opacity="1.000000" stroke="none" 
	d="
M43.362694,374.649078 
	C42.869736,373.492554 42.559082,372.625183 42.248428,371.757843 
	C42.592937,371.568298 42.937443,371.378784 43.281948,371.189240 
	C44.530727,373.062927 45.779507,374.936615 47.028290,376.810272 
	C46.684490,377.129547 46.340687,377.448792 45.996887,377.768066 
	C45.179592,376.824799 44.362297,375.881500 43.362694,374.649078 
z"/>
<path fill="#F6F6F6" opacity="1.000000" stroke="none" 
	d="
M35.025261,359.049255 
	C34.697243,358.059479 34.497341,357.367828 34.297443,356.676147 
	C34.649025,356.521973 35.000607,356.367828 35.352188,356.213684 
	C36.208233,357.828430 37.064281,359.443176 37.920330,361.057922 
	C37.609596,361.260712 37.298862,361.463531 36.988125,361.666321 
	C36.376545,360.893341 35.764965,360.120331 35.025261,359.049255 
z"/>
<path fill="#F6F6F6" opacity="1.000000" stroke="none" 
	d="
M376.635254,456.443512 
	C377.576202,455.148315 378.748627,454.066742 379.921082,452.985168 
	C380.246063,453.449402 380.571045,453.913635 380.896057,454.377869 
	C379.552917,455.137604 378.209808,455.897369 376.635254,456.443512 
z"/>
<path fill="#F6F6F6" opacity="1.000000" stroke="none" 
	d="
M66.735245,404.495605 
	C67.602814,405.464020 68.193726,406.291718 68.784630,407.119385 
	C68.226395,407.294769 67.668152,407.470123 67.109917,407.645477 
	C66.892799,406.548645 66.675690,405.451782 66.735245,404.495605 
z"/>
<path fill="#F6F6F6" opacity="1.000000" stroke="none" 
	d="
M101.305313,440.505188 
	C100.949997,439.722748 100.857040,439.076019 100.764084,438.429291 
	C101.299431,438.652405 101.834785,438.875549 102.370140,439.098663 
	C102.102654,439.612732 101.835159,440.126801 101.305313,440.505188 
z"/>
<path fill="#F6F6F6" opacity="1.000000" stroke="none" 
	d="
M396.074158,443.653473 
	C395.984100,442.909515 396.198547,442.182892 396.412994,441.456238 
	C396.803711,441.597443 397.194397,441.738647 397.585083,441.879883 
	C397.182953,442.476868 396.780823,443.073822 396.074158,443.653473 
z"/>
<path fill="#F6F6F6" opacity="1.000000" stroke="none" 
	d="
M401.506042,439.694092 
	C400.723145,440.049286 400.076111,440.142242 399.429047,440.235168 
	C399.652496,439.699982 399.875946,439.164764 400.099396,438.629578 
	C400.613556,438.896973 401.127716,439.164398 401.506042,439.694092 
z"/>
<path fill="#F6F6F6" opacity="1.000000" stroke="none" 
	d="
M61.349281,400.073120 
	C62.092213,399.983398 62.818794,400.198181 63.545380,400.412933 
	C63.404186,400.803802 63.262993,401.194641 63.121803,401.585510 
	C62.525509,401.182892 61.929218,400.780243 61.349281,400.073120 
z"/>
<path fill="#F6F6F6" opacity="1.000000" stroke="none" 
	d="
M54.541435,388.355164 
	C54.157967,388.882874 53.638390,389.146179 53.118805,389.409454 
	C52.894367,388.869995 52.669933,388.330536 52.445499,387.791077 
	C53.098774,387.890961 53.752048,387.990875 54.541435,388.355164 
z"/>
<path fill="#F6F6F6" opacity="1.000000" stroke="none" 
	d="
M106.391968,443.469177 
	C105.939369,443.352600 105.664894,443.065796 105.390411,442.778992 
	C105.509300,442.665253 105.628181,442.551514 105.747063,442.437775 
	C106.021400,442.724823 106.295746,443.011871 106.391968,443.469177 
z"/>
<path fill="#F6F6F6" opacity="1.000000" stroke="none" 
	d="
M55.391136,391.954773 
	C55.789238,391.711700 56.185524,391.713348 56.579548,391.744110 
	C56.591011,391.744965 56.578568,392.052338 56.577274,392.216797 
	C56.181183,392.212433 55.785091,392.208099 55.391136,391.954773 
z"/>
<path fill="#F6F6F6" opacity="1.000000" stroke="none" 
	d="
M58.604774,395.532745 
	C59.056667,395.649292 59.333916,395.934296 59.589695,396.237427 
	C59.596306,396.245239 59.367817,396.451416 59.248959,396.565094 
	C58.975075,396.277924 58.701191,395.990753 58.604774,395.532745 
z"/>
<path fill="#F6F6F6" opacity="1.000000" stroke="none" 
	d="
M31.448315,349.534576 
	C31.414108,349.477295 31.482519,349.591858 31.448315,349.534576 
z"/>
<path fill="#F6F6F6" opacity="1.000000" stroke="none" 
	d="
M32.534824,352.550262 
	C32.477840,352.584625 32.591808,352.515900 32.534824,352.550262 
z"/>
<path fill="#FDFEFE" opacity="1.000000" stroke="none" 
	d="
M78.239998,315.705414 
	C58.152500,262.671265 66.916435,204.730774 84.773788,172.736099 
	C87.558098,174.172287 90.344238,175.629227 93.147827,177.051788 
	C101.188942,181.131836 107.624001,179.593399 112.451698,172.064392 
	C131.172668,142.868271 156.632889,121.714920 188.464935,108.157639 
	C251.999542,81.098244 329.720520,99.289742 374.586761,151.856903 
	C380.297577,158.547943 385.337494,165.827591 390.473846,172.988297 
	C395.356567,179.795349 400.615295,181.447281 408.118683,177.952774 
	C411.275940,176.482330 414.338531,174.808624 417.439026,173.229919 
	C440.417725,213.799118 443.341400,285.007935 414.680847,335.250793 
	C412.974731,334.424500 411.222626,333.608826 409.499481,332.735870 
	C401.155762,328.508636 395.336182,329.776733 390.207947,337.560669 
	C381.175446,351.270752 370.898041,363.880829 358.292755,374.448181 
	C322.322510,404.602936 280.913879,418.005737 234.182465,413.139984 
	C183.500946,407.862946 143.930557,383.375031 114.988472,341.599670 
	C106.379967,329.174042 103.148254,328.204437 89.536354,335.022430 
	C88.947212,335.317474 88.335106,335.566681 87.160858,336.094971 
	C84.211075,329.367035 81.295891,322.718018 78.239998,315.705414 
M136.199707,318.234802 
	C158.589554,354.546173 190.883713,376.600586 232.980042,382.727356 
	C268.988586,387.968140 302.039764,378.858734 331.206818,356.933441 
	C380.545319,319.845032 398.102203,253.157242 372.064789,197.184540 
	C349.532471,148.746765 311.015503,121.972076 257.216156,118.885406 
	C213.480682,116.376129 177.154678,132.664368 149.323044,165.944092 
	C112.602173,209.853149 108.122627,267.334930 136.199707,318.234802 
z"/>
<path fill="#F2FAFB" opacity="1.000000" stroke="none" 
	d="
M172.343353,90.515594 
	C169.962372,93.480972 171.255005,94.012253 173.756973,93.051010 
	C177.764648,91.511284 181.655792,89.668266 185.961670,87.794395 
	C186.706314,89.067505 187.405090,90.262207 188.445648,92.041260 
	C182.000626,94.915344 175.877060,97.646080 169.205826,100.621040 
	C166.346298,94.226509 163.600754,88.086868 160.670837,81.534935 
	C167.100861,78.657089 173.254684,75.902870 179.694183,73.020782 
	C180.348267,74.513290 180.927872,75.835854 181.597229,77.363243 
	C176.691177,79.768471 172.043198,82.047173 167.395218,84.325874 
	C167.732300,85.052208 168.069397,85.778542 168.406479,86.504875 
	C173.087479,84.570229 177.768478,82.635590 182.792099,80.559341 
	C183.542542,81.897911 184.224762,83.114784 185.160019,84.782990 
	C180.802002,86.712646 176.743500,88.509666 172.343353,90.515594 
z"/>
<path fill="#F2FAFB" opacity="1.000000" stroke="none" 
	d="
M401.763367,361.689209 
	C404.817749,357.554260 407.612610,353.654846 410.628174,349.447479 
	C414.150726,351.909119 417.397125,354.177765 421.155731,356.804352 
	C417.215332,362.456757 413.367523,367.976349 409.322296,373.779083 
	C407.947449,372.938599 406.737640,372.198975 405.137817,371.220947 
	C408.153351,366.790314 411.009338,362.594025 413.895599,358.353271 
	C411.170380,357.230988 411.177856,357.236267 407.735229,362.125336 
	C406.115082,364.426239 404.459930,366.702545 402.553040,369.363464 
	C399.010254,366.876984 395.679016,364.539001 392.013397,361.966339 
	C396.068695,356.172302 399.851501,350.767578 403.847015,345.058990 
	C405.186584,345.829102 406.399323,346.526276 407.682739,347.264099 
	C407.505829,347.907013 407.490906,348.424377 407.244843,348.783295 
	C404.986664,352.077148 402.719116,355.365631 400.389404,358.609039 
	C399.162567,360.316956 398.830353,361.591034 401.763367,361.689209 
z"/>
<path fill="#F1F9FB" opacity="1.000000" stroke="none" 
	d="
M179.917023,415.087463 
	C182.677231,416.324280 185.082031,417.427124 187.793091,418.670441 
	C187.252213,420.108795 186.757233,421.425079 186.085770,423.210693 
	C181.146591,421.072235 176.487305,419.054962 171.804718,417.027588 
	C171.072693,419.880096 171.075851,419.873047 176.454620,422.284027 
	C179.014420,423.431427 181.559479,424.611664 184.483139,425.946869 
	C183.929016,427.462952 183.453323,428.764435 183.012650,429.970123 
	C177.354752,429.611725 173.201843,424.435913 167.684357,425.143250 
	C167.521881,425.694794 167.359421,426.246307 167.196945,426.797852 
	C171.815842,428.940002 176.434738,431.082153 181.353256,433.363281 
	C180.715240,434.898956 180.169510,436.212524 179.497604,437.829742 
	C173.191467,435.048340 167.144028,432.381042 160.434387,429.421631 
	C163.229767,423.079620 165.927948,416.958099 168.837112,410.357941 
	C172.645828,411.989990 176.103714,413.471741 179.917023,415.087463 
z"/>
<path fill="#F2FAFB" opacity="1.000000" stroke="none" 
	d="
M412.265594,159.454239 
	C409.282440,161.557999 406.565552,163.444138 403.389679,165.648911 
	C399.376709,159.930618 395.509827,154.420425 391.476959,148.673782 
	C392.924042,147.612488 394.075562,146.767944 395.168274,145.966522 
	C399.435364,149.490280 400.516541,155.663528 405.565399,158.018219 
	C406.003876,157.671127 406.442322,157.324051 406.880798,156.976959 
	C404.058197,152.825317 401.235626,148.673660 398.042786,143.977432 
	C401.434540,141.551529 404.833069,139.120789 408.506744,136.493256 
	C412.570648,142.273438 416.373688,147.682526 420.379242,153.379700 
	C419.135956,154.396057 418.049622,155.284103 416.619720,156.453003 
	C414.714966,153.814743 413.186676,151.255859 411.213379,149.105362 
	C409.651123,147.402832 409.355011,143.354645 404.685791,144.838181 
	C407.468994,148.825348 409.931274,152.136520 412.113220,155.623138 
	C412.694122,156.551422 412.415741,158.017487 412.265594,159.454239 
z"/>
<path fill="#F2FAFB" opacity="1.000000" stroke="none" 
	d="
M118.655144,399.746552 
	C113.363274,395.457611 108.375458,390.980621 103.006706,386.161713 
	C108.546280,381.361969 113.616203,376.969177 118.768173,372.505310 
	C122.287613,376.309784 126.875046,381.268738 132.151474,386.972473 
	C128.266861,390.678589 123.613029,395.118561 118.655144,399.746552 
M115.797279,379.998566 
	C113.756248,381.615692 111.715218,383.232819 110.397301,384.277008 
	C113.647827,387.869934 115.927628,390.389893 117.403366,392.021057 
	C120.104218,390.010376 122.857933,387.960358 126.082253,385.559967 
	C123.665100,383.378906 121.938202,381.551758 119.926331,380.127014 
	C119.018440,379.484039 117.542938,379.642639 115.797279,379.998566 
z"/>
<path fill="#F3FAFB" opacity="1.000000" stroke="none" 
	d="
M105.643997,127.274261 
	C105.273155,125.818825 104.589165,124.110214 105.136795,123.491211 
	C109.177017,118.924377 113.462914,114.574890 117.183487,110.669327 
	C122.759247,116.020203 127.620026,120.684921 132.310715,125.186424 
	C127.701271,129.883301 123.085945,134.586166 117.852516,139.918854 
	C113.871002,135.790146 109.886055,131.657883 105.643997,127.274261 
M119.104836,131.925827 
	C121.322960,129.778442 123.541092,127.631042 125.852661,125.393181 
	C122.974052,122.685295 120.504501,120.362206 118.218925,118.212181 
	C115.815903,120.467888 113.342316,122.789841 110.489594,125.467682 
	C113.285637,127.869682 115.871735,130.091324 119.104836,131.925827 
z"/>
<path fill="#F2FAFB" opacity="1.000000" stroke="none" 
	d="
M140.634094,402.799469 
	C139.333618,404.923157 138.175934,406.725006 136.827805,408.823242 
	C139.794144,410.871063 142.619736,412.821747 145.696152,414.945557 
	C147.752014,411.983398 149.635162,409.270111 151.850555,406.078125 
	C147.594421,403.037384 143.469177,400.090149 138.994431,396.893188 
	C139.837006,395.542114 140.576111,394.356934 141.553589,392.789551 
	C147.351654,396.746613 152.930161,400.553833 158.875214,404.611237 
	C154.892075,410.468262 151.175919,415.932678 147.092865,421.936646 
	C141.248322,417.950470 135.692856,414.161469 129.789871,410.135437 
	C132.195190,406.588745 134.408401,403.325378 137.031464,399.457642 
	C138.398102,400.559570 139.587479,401.518585 140.634094,402.799469 
z"/>
<path fill="#F3FAFB" opacity="1.000000" stroke="none" 
	d="
M140.544891,93.559883 
	C143.001511,91.883728 145.170227,90.422180 147.564224,88.808792 
	C151.495773,94.572319 155.224960,100.039162 159.344681,106.078560 
	C153.704910,109.937294 148.162643,113.729317 142.158905,117.837067 
	C139.698578,114.325233 137.355957,110.981415 134.834442,107.382240 
	C136.155228,106.406654 137.304779,105.557541 138.673264,104.546730 
	C140.336380,106.704102 141.831512,108.643562 143.520142,110.834015 
	C146.430176,108.834999 149.254242,106.895042 152.382751,104.745956 
	C150.270081,101.641983 148.354797,98.828033 146.270508,95.765747 
	C141.850113,98.719460 137.740784,101.465309 133.272629,104.450928 
	C132.338791,103.278885 131.473862,102.193314 130.273407,100.686607 
	C133.805069,98.241463 137.031006,96.007973 140.544891,93.559883 
z"/>
<path fill="#F3FAFB" opacity="1.000000" stroke="none" 
	d="
M389.781403,383.173828 
	C387.991089,381.204681 386.447662,379.480621 384.357452,377.145752 
	C380.637604,381.473480 377.377899,385.265869 373.948059,389.256195 
	C372.194397,387.769104 371.095642,386.837341 370.298218,386.161102 
	C375.160767,381.112610 379.867401,376.226013 384.382965,371.537781 
	C389.142059,376.135345 394.019836,380.847534 398.537659,385.212036 
	C393.730652,390.154053 389.009125,395.008148 384.245270,399.905762 
	C381.451447,397.174072 378.613831,394.399567 375.534393,391.388580 
	C376.539185,390.201050 377.459534,389.113312 378.604858,387.759644 
	C380.601532,389.614166 382.401428,391.285950 385.348022,394.022797 
	C387.113678,391.736389 389.042725,389.639771 390.431610,387.231598 
	C390.948059,386.336121 390.199829,384.711182 389.781403,383.173828 
z"/>
<path fill="#F4FBFC" opacity="1.000000" stroke="none" 
	d="
M385.820190,119.160721 
	C383.717072,117.502029 381.870361,116.094162 379.845947,114.550842 
	C381.584442,112.608002 382.432861,111.659882 383.071777,110.945847 
	C387.816589,115.912483 392.466827,120.780128 396.977509,125.501694 
	C393.083557,129.217178 388.220764,133.857086 383.152802,138.692764 
	C379.267365,134.470383 374.796783,129.612061 369.919861,124.312202 
	C372.401031,122.197884 375.518188,119.541595 379.121857,116.470757 
	C379.608734,116.925972 380.636505,117.886879 381.803589,118.978058 
	C379.793488,121.235687 378.274994,122.941170 376.461243,124.978294 
	C379.051697,127.297646 381.577637,129.559235 383.996643,131.725098 
	C385.978973,129.626938 388.227325,127.247185 390.475677,124.867439 
	C391.168671,124.534729 391.861664,124.202019 392.554626,123.869308 
	C390.395294,122.383385 388.235931,120.897461 385.820190,119.160721 
z"/>
<path fill="#F2FAFB" opacity="1.000000" stroke="none" 
	d="
M346.584290,408.304474 
	C344.290100,416.859863 352.289062,417.511322 356.017426,421.185089 
	C353.319580,423.982361 350.679626,424.139221 347.992004,421.820251 
	C344.538269,418.840271 341.375916,419.477020 338.261688,422.676239 
	C339.235931,424.704590 340.293488,426.906342 341.448120,429.310242 
	C340.120422,430.092987 339.021973,430.740570 337.405945,431.693329 
	C334.049835,425.595825 330.810242,419.710022 327.424744,413.559143 
	C329.004364,412.647522 330.226715,411.942078 331.605103,411.146606 
	C332.943085,413.367096 334.132843,415.341522 335.362610,417.382416 
	C339.772186,416.800262 341.780396,414.529144 341.412994,410.069244 
	C341.145630,406.824219 341.977509,404.104126 346.337006,403.645355 
	C346.420319,405.064301 346.502808,406.469574 346.584290,408.304474 
z"/>
<path fill="#F1F9FB" opacity="1.000000" stroke="none" 
	d="
M92.529434,372.864197 
	C88.635208,367.484009 85.032562,362.345825 81.133293,356.784637 
	C86.996834,352.665558 92.496407,348.802155 98.252548,344.758545 
	C102.278397,350.468170 106.084930,355.866730 110.126106,361.598083 
	C108.987007,362.574402 107.931541,363.479034 106.452591,364.746613 
	C103.283783,360.398041 100.299210,356.302277 96.991730,351.763367 
	C94.120552,353.778320 91.342064,355.728210 88.132286,357.980804 
	C91.208351,362.425751 94.085556,366.583344 97.346024,371.294769 
	C95.563370,372.008392 94.192192,372.557281 92.529434,372.864197 
z"/>
<path fill="#F2FAFB" opacity="1.000000" stroke="none" 
	d="
M83.808807,150.756989 
	C87.164200,145.991318 90.317390,141.521133 93.673584,136.763153 
	C95.045303,137.642426 96.234489,138.404694 97.739365,139.369339 
	C94.695190,143.829514 91.822563,148.038345 88.777077,152.500443 
	C91.769402,154.587494 94.575363,156.544556 97.629356,158.674622 
	C100.741936,154.352417 103.638824,150.329742 106.768616,145.983627 
	C108.054184,146.777283 109.240891,147.509918 110.946907,148.563141 
	C106.908493,154.321274 103.050514,159.822144 98.921402,165.709579 
	C93.587929,161.988800 88.519005,158.597855 83.682617,154.902573 
	C83.047485,154.417297 83.602715,152.374084 83.808807,150.756989 
z"/>
<path fill="#F3FAFB" opacity="1.000000" stroke="none" 
	d="
M350.961182,87.211388 
	C352.632141,87.812553 353.954315,88.478127 356.371124,89.694710 
	C348.161377,93.017906 343.267029,97.907845 346.543579,107.044579 
	C342.348694,106.913528 340.584412,105.271347 341.031281,101.816948 
	C341.606537,97.369904 340.094696,94.420486 335.005463,93.313980 
	C333.939850,95.077141 332.693024,97.140099 331.265442,99.502159 
	C329.853912,98.889915 328.547424,98.323219 326.845245,97.584892 
	C330.191650,91.438904 333.406097,85.535316 336.777130,79.344170 
	C338.396362,80.134193 339.657379,80.749435 341.082031,81.444511 
	C339.872070,83.915688 338.795593,86.114258 337.825134,88.096321 
	C342.732391,93.840126 346.557983,89.316086 350.961182,87.211388 
z"/>
<path fill="#F0F9FB" opacity="1.000000" stroke="none" 
	d="
M269.495209,62.500511 
	C269.499084,68.856712 269.499084,74.817947 269.499084,81.208572 
	C267.195282,81.208572 265.701721,81.208572 263.941956,81.208572 
	C263.941956,78.643074 263.941956,76.351631 263.941956,73.532318 
	C258.672241,73.263039 253.627960,73.005280 248.451996,72.740791 
	C248.451996,68.528870 248.451996,64.617271 248.451996,60.333195 
	C250.143082,60.191319 251.532211,60.074772 253.247620,59.930855 
	C253.247620,62.668194 253.247620,65.082916 253.247620,67.890701 
	C256.735840,67.890701 260.009369,67.890701 263.877411,67.890701 
	C264.122620,65.868172 264.410248,63.495762 264.816162,60.147747 
	C266.642395,60.912510 268.066864,61.509029 269.495209,62.500511 
z"/>
<path fill="#F1F9FB" opacity="1.000000" stroke="none" 
	d="
M256.783142,437.742645 
	C259.337738,437.538086 261.457733,437.357239 263.835815,437.154358 
	C263.835815,434.558746 263.835815,432.270966 263.835815,429.562958 
	C265.469879,429.437561 266.847778,429.331818 268.812653,429.181061 
	C268.812653,436.191010 268.812653,442.783020 268.812653,449.828522 
	C267.845978,449.912445 266.463837,450.032440 264.712646,450.184479 
	C264.414795,447.613983 264.154114,445.364441 263.858093,442.810059 
	C258.734253,442.810059 253.694168,442.810059 248.278351,442.810059 
	C248.278351,438.592224 248.278351,434.665161 248.278351,430.296234 
	C249.412994,430.187073 250.795624,430.054047 251.535568,429.982849 
	C254.915466,432.025635 249.704346,438.158997 256.783142,437.742645 
z"/>
<path fill="#F1F9FB" opacity="1.000000" stroke="none" 
	d="
M288.617493,79.768684 
	C287.720184,84.023468 286.934631,87.873375 286.094177,91.992294 
	C283.587524,91.494949 281.528351,91.086388 279.516296,90.687172 
	C281.290497,84.891090 283.428680,79.360779 284.609955,73.633133 
	C285.765381,68.031136 285.945129,62.227921 286.620605,55.878796 
	C288.017456,56.061810 290.215973,56.349854 292.931763,56.705669 
	C292.228088,60.598030 291.405304,64.098053 291.037781,67.645233 
	C290.865265,69.310455 291.895081,71.089081 291.778381,72.774643 
	C291.676575,74.244812 290.780640,75.679550 290.137634,77.085136 
	C289.769043,77.890831 289.205170,78.607216 288.617493,79.768684 
z"/>
<path fill="#F1F9FB" opacity="1.000000" stroke="none" 
	d="
M232.598404,71.375153 
	C233.843887,77.405350 235.011993,82.993164 236.235367,88.845261 
	C234.499756,89.064484 232.413696,89.327980 229.715500,89.668785 
	C229.438705,87.540070 229.406128,85.585075 228.899567,83.761765 
	C227.953491,80.356468 229.787537,75.994301 225.466354,73.660568 
	C225.023529,73.421417 224.743790,71.776260 225.088547,71.350502 
	C229.423721,65.997086 224.671066,60.210381 226.285141,54.267365 
	C227.964813,53.966034 230.020004,53.597343 232.521042,53.148666 
	C232.521042,59.209614 232.521042,65.071190 232.598404,71.375153 
z"/>
<path fill="#F1F9FB" opacity="1.000000" stroke="none" 
	d="
M286.523895,420.637512 
	C287.231903,424.117828 287.640778,427.259094 288.457550,430.290405 
	C288.820709,431.638153 290.063599,432.731171 290.800140,434.001831 
	C291.332855,434.920807 292.341156,436.359344 292.024597,436.853821 
	C288.357117,442.582672 293.155304,447.813751 292.533051,453.973022 
	C290.787445,454.377991 288.627533,454.879120 285.476227,455.610229 
	C287.036407,442.939789 284.910553,431.446686 278.319641,419.737335 
	C281.664032,419.951294 284.027405,420.102509 286.523895,420.637512 
z"/>
<path fill="#F1F9FB" opacity="1.000000" stroke="none" 
	d="
M224.947464,439.817200 
	C226.731079,433.585999 228.535858,427.781006 230.577820,421.213165 
	C231.819580,421.334930 234.029236,421.551636 237.163254,421.858948 
	C231.970856,433.289337 230.214355,444.780609 233.084290,457.185913 
	C230.506531,457.032806 228.439102,456.910004 225.559082,456.738953 
	C225.960297,452.858521 226.575851,449.312836 226.591171,445.764526 
	C226.599121,443.926544 225.543686,442.083984 224.947464,439.817200 
z"/>
<path fill="#F1F9FB" opacity="1.000000" stroke="none" 
	d="
M364.775452,407.262878 
	C361.913605,403.410675 359.267090,399.845459 356.420807,396.011200 
	C357.739349,394.906555 358.808075,394.011169 360.230286,392.819641 
	C364.431763,398.460358 368.443268,403.846039 372.653015,409.497925 
	C371.275696,410.532501 370.145508,411.381470 368.711731,412.458466 
	C367.347870,410.659302 366.169312,409.104584 364.775452,407.262878 
z"/>
<path fill="#F0F9FB" opacity="1.000000" stroke="none" 
	d="
M359.743469,117.212769 
	C358.333618,116.474289 357.315338,115.685989 356.112122,114.754478 
	C360.278748,109.153366 364.232849,103.837975 368.374268,98.270782 
	C369.814819,99.321106 370.958557,100.155037 372.504272,101.282036 
	C368.248291,106.746284 364.191650,111.954613 359.743469,117.212769 
z"/>
<path fill="#028A7C" opacity="1.000000" stroke="none" 
	d="
M136.050598,317.900024 
	C108.122627,267.334930 112.602173,209.853149 149.323044,165.944092 
	C177.154678,132.664368 213.480682,116.376129 257.216156,118.885406 
	C311.015503,121.972076 349.532471,148.746765 372.064789,197.184540 
	C398.102203,253.157242 380.545319,319.845032 331.206818,356.933441 
	C302.039764,378.858734 268.988586,387.968140 232.980042,382.727356 
	C190.883713,376.600586 158.589554,354.546173 136.050598,317.900024 
M345.838104,291.303986 
	C345.857574,258.974670 345.887024,226.645325 345.889343,194.315994 
	C345.889923,186.337463 341.148376,181.206894 333.056122,180.866211 
	C325.411316,180.544388 317.748199,180.567703 310.093506,180.585724 
	C262.769104,180.697113 215.444687,180.820389 168.120621,181.022049 
	C161.336258,181.050964 156.196838,186.292435 156.193390,193.062073 
	C156.176544,226.224564 156.174042,259.387451 156.333511,292.549408 
	C156.384171,303.082123 160.395905,306.763519 171.046524,306.830933 
	C191.208771,306.958618 211.371246,307.053192 231.533615,307.159210 
	C233.290131,307.168457 235.046738,307.160431 236.617889,307.160431 
	C236.617889,312.807251 236.617889,317.711731 236.617889,322.978577 
	C227.973984,322.978577 219.707230,322.978577 211.388458,322.978577 
	C211.388458,326.907562 211.388458,330.450958 211.388458,333.915588 
	C238.026245,333.915588 264.298767,333.915588 290.652740,333.915588 
	C290.652740,330.115082 290.652740,326.569153 290.652740,322.670166 
	C282.030975,322.670166 273.755157,322.670166 265.300079,322.670166 
	C265.300079,317.410126 265.300079,312.510620 265.300079,307.160431 
	C267.359985,307.160431 269.152985,307.164093 270.945984,307.159882 
	C290.943512,307.113159 310.941101,307.075836 330.938599,307.013336 
	C341.430969,306.980530 345.453918,302.965240 345.838104,291.303986 
z"/>
<path fill="#0C9CB5" opacity="1.000000" stroke="none" 
	d="
M116.061111,379.718079 
	C117.542938,379.642639 119.018440,379.484039 119.926331,380.127014 
	C121.938202,381.551758 123.665100,383.378906 126.082253,385.559967 
	C122.857933,387.960358 120.104218,390.010376 117.403366,392.021057 
	C115.927628,390.389893 113.647827,387.869934 110.397301,384.277008 
	C111.715218,383.232819 113.756248,381.615692 116.061111,379.718079 
z"/>
<path fill="#099BB5" opacity="1.000000" stroke="none" 
	d="
M118.781326,132.119400 
	C115.871735,130.091324 113.285637,127.869682 110.489594,125.467682 
	C113.342316,122.789841 115.815903,120.467888 118.218925,118.212181 
	C120.504501,120.362206 122.974052,122.685295 125.852661,125.393181 
	C123.541092,127.631042 121.322960,129.778442 118.781326,132.119400 
z"/>
<path fill="#FDFEFE" opacity="1.000000" stroke="none" 
	d="
M345.828735,291.771973 
	C345.453918,302.965240 341.430969,306.980530 330.938599,307.013336 
	C310.941101,307.075836 290.943512,307.113159 270.945984,307.159882 
	C269.152985,307.164093 267.359985,307.160431 265.300079,307.160431 
	C265.300079,312.510620 265.300079,317.410126 265.300079,322.670166 
	C273.755157,322.670166 282.030975,322.670166 290.652740,322.670166 
	C290.652740,326.569153 290.652740,330.115082 290.652740,333.915588 
	C264.298767,333.915588 238.026245,333.915588 211.388458,333.915588 
	C211.388458,330.450958 211.388458,326.907562 211.388458,322.978577 
	C219.707230,322.978577 227.973984,322.978577 236.617889,322.978577 
	C236.617889,317.711731 236.617889,312.807251 236.617889,307.160431 
	C235.046738,307.160431 233.290131,307.168457 231.533615,307.159210 
	C211.371246,307.053192 191.208771,306.958618 171.046524,306.830933 
	C160.395905,306.763519 156.384171,303.082123 156.333511,292.549408 
	C156.174042,259.387451 156.176544,226.224564 156.193390,193.062073 
	C156.196838,186.292435 161.336258,181.050964 168.120621,181.022049 
	C215.444687,180.820389 262.769104,180.697113 310.093506,180.585724 
	C317.748199,180.567703 325.411316,180.544388 333.056122,180.866211 
	C341.148376,181.206894 345.889923,186.337463 345.889343,194.315994 
	C345.887024,226.645325 345.857574,258.974670 345.828735,291.771973 
M189.499817,188.978836 
	C185.169647,189.029694 180.839539,189.117096 176.509293,189.124451 
	C164.457443,189.144943 164.263901,189.131088 164.217514,201.292831 
	C164.101852,231.608551 164.169388,261.924988 164.189392,292.241150 
	C164.192856,297.490936 165.737289,299.013123 170.995422,299.014252 
	C224.300125,299.025513 277.604828,299.024902 330.909546,299.015442 
	C336.487305,299.014465 337.868652,297.601318 337.870636,291.892609 
	C337.881714,260.076355 337.878571,228.260117 337.868988,196.443863 
	C337.866943,189.722656 337.112396,188.980392 330.424713,188.980057 
	C283.783081,188.977722 237.141479,188.978836 189.499817,188.978836 
M253.224792,311.385040 
	C250.628830,311.385040 248.032852,311.385040 245.406372,311.385040 
	C245.406372,314.640747 245.406372,317.212616 245.406372,319.947021 
	C249.264526,319.947021 252.823471,319.947021 257.687531,319.947021 
	C254.990982,317.091278 260.128174,312.717957 253.224792,311.385040 
z"/>
<path fill="#0D8F82" opacity="1.000000" stroke="none" 
	d="
M189.999847,188.978836 
	C237.141479,188.978836 283.783081,188.977722 330.424713,188.980057 
	C337.112396,188.980392 337.866943,189.722656 337.868988,196.443863 
	C337.878571,228.260117 337.881714,260.076355 337.870636,291.892609 
	C337.868652,297.601318 336.487305,299.014465 330.909546,299.015442 
	C277.604828,299.024902 224.300125,299.025513 170.995422,299.014252 
	C165.737289,299.013123 164.192856,297.490936 164.189392,292.241150 
	C164.169388,261.924988 164.101852,231.608551 164.217514,201.292831 
	C164.263901,189.131088 164.457443,189.144943 176.509293,189.124451 
	C180.839539,189.117096 185.169647,189.029694 189.999847,188.978836 
M173.781357,222.499969 
	C173.781357,245.251129 173.781357,268.002289 173.781357,290.795105 
	C225.597961,290.795105 276.794769,290.795105 327.890625,290.795105 
	C327.890625,259.248260 327.890625,228.041061 327.890625,196.868774 
	C276.417023,196.868774 225.352142,196.868774 173.781281,196.868774 
	C173.781281,205.260788 173.781281,213.380371 173.781357,222.499969 
z"/>
<path fill="#169386" opacity="1.000000" stroke="none" 
	d="
M253.670059,311.387146 
	C260.128174,312.717957 254.990982,317.091278 257.687531,319.947021 
	C252.823471,319.947021 249.264526,319.947021 245.406372,319.947021 
	C245.406372,317.212616 245.406372,314.640747 245.406372,311.385040 
	C248.032852,311.385040 250.628830,311.385040 253.670059,311.387146 
z"/>
<path fill="#FCFEFD" opacity="1.000000" stroke="none" 
	d="
M173.781311,221.999969 
	C173.781281,213.380371 173.781281,205.260788 173.781281,196.868774 
	C225.352142,196.868774 276.417023,196.868774 327.890625,196.868774 
	C327.890625,228.041061 327.890625,259.248260 327.890625,290.795105 
	C276.794769,290.795105 225.597961,290.795105 173.781357,290.795105 
	C173.781357,268.002289 173.781357,245.251129 173.781311,221.999969 
M181.981720,229.500000 
	C181.981720,247.226288 181.981720,264.952576 181.981720,282.583435 
	C228.415741,282.583435 273.999054,282.583435 319.723389,282.583435 
	C319.723389,256.632812 319.723389,230.938828 319.723389,205.210815 
	C273.677399,205.210815 227.966660,205.210815 181.981720,205.210815 
	C181.981720,213.221283 181.981720,220.860657 181.981720,229.500000 
z"/>
<path fill="#028A7C" opacity="1.000000" stroke="none" 
	d="
M181.981720,229.000015 
	C181.981720,220.860657 181.981720,213.221283 181.981720,205.210815 
	C227.966660,205.210815 273.677399,205.210815 319.723389,205.210815 
	C319.723389,230.938828 319.723389,256.632812 319.723389,282.583435 
	C273.999054,282.583435 228.415741,282.583435 181.981720,282.583435 
	C181.981720,264.952576 181.981720,247.226288 181.981720,229.000015 
M244.214996,268.112732 
	C239.730927,258.989624 239.034088,249.328537 239.989212,239.388580 
	C240.314774,236.000488 240.747330,232.735046 245.119278,232.979538 
	C249.450500,233.221741 249.068008,236.795975 249.085037,239.741226 
	C249.148621,250.730911 249.049850,261.721985 249.195282,272.710114 
	C249.212112,273.982239 250.374695,275.239197 251.006073,276.503204 
	C251.542953,275.291412 252.533630,274.084167 252.545929,272.867096 
	C252.658722,261.711823 252.659073,250.554367 252.555923,239.398804 
	C252.528320,236.413162 252.356247,233.422104 256.206421,232.981216 
	C260.311981,232.511108 261.124329,235.592361 261.513916,238.737640 
	C262.897034,249.904984 261.610046,260.609100 256.151123,270.665466 
	C255.528549,271.812378 255.977829,273.541138 255.930084,275.000061 
	C257.181763,274.231995 259.201843,273.722076 259.560669,272.654053 
	C261.919678,265.632324 264.575073,258.603699 265.832092,251.351730 
	C266.848053,245.490280 266.038055,239.312317 266.038055,232.732285 
	C267.908936,233.829941 269.796448,234.937378 271.197052,235.759109 
	C272.064758,233.936310 272.810089,232.029587 273.832855,230.285568 
	C277.004761,224.876648 278.391052,219.222275 276.249939,213.130249 
	C275.948792,212.273483 274.700928,211.749451 273.891296,211.071396 
	C273.374664,212.115356 272.450897,213.148071 272.421692,214.205460 
	C272.349365,216.826599 273.177185,219.539810 272.761078,222.070969 
	C271.730164,228.342239 270.048828,229.046280 263.766571,228.780838 
	C255.315979,228.423752 246.826538,228.384735 238.378372,228.761398 
	C231.672867,229.060394 229.568649,227.731735 228.996277,220.840622 
	C228.833694,218.883118 229.360626,216.874908 229.281677,214.901550 
	C229.230347,213.618927 228.654984,212.357269 228.314392,211.086212 
	C227.254807,212.122894 225.577133,212.991241 225.241135,214.224976 
	C223.668900,219.998199 225.095215,225.372620 228.160782,230.396957 
	C229.134995,231.993622 229.997147,233.658676 230.902710,235.278366 
	C232.083710,234.616791 233.742752,233.687424 236.458633,232.166016 
	C236.141068,236.054321 235.961807,238.787689 235.687531,241.511490 
	C234.663177,251.684814 236.145340,261.451782 240.898544,270.528259 
	C241.844925,272.335449 244.106598,273.453827 245.761749,274.889832 
	C245.370148,272.853790 244.978561,270.817719 244.214996,268.112732 
M240.434158,217.949127 
	C239.737747,219.494675 239.041321,221.040222 238.349808,222.574905 
	C246.961441,222.574905 254.974030,222.574905 263.142426,222.574905 
	C263.122101,222.122177 263.177246,221.472351 263.051392,220.859711 
	C262.370239,217.543793 257.527008,215.825211 259.455170,211.497513 
	C258.201996,211.576935 256.411469,211.154831 255.788422,211.822372 
	C253.057373,214.748367 248.800003,214.873123 246.257980,211.897476 
	C245.640366,211.174530 244.506210,210.892868 243.609543,210.408295 
	C243.250641,211.377029 242.899567,212.348770 242.530945,213.313812 
	C242.006851,214.685898 241.469894,216.053040 240.434158,217.949127 
M273.356964,260.155457 
	C273.983215,265.602448 274.568512,271.055115 275.320770,276.484650 
	C275.375397,276.879059 276.721863,277.452515 277.323975,277.314758 
	C277.956879,277.169891 278.865784,276.282623 278.882965,275.697113 
	C279.056610,269.781616 278.593781,264.014618 273.356964,260.155457 
M228.610077,266.080475 
	C228.610077,263.908081 228.610077,261.735687 228.610077,259.563293 
	C227.822266,259.453278 227.034454,259.343262 226.246643,259.233246 
	C225.155701,264.230225 223.926239,269.204407 223.096451,274.244385 
	C222.939728,275.196228 224.372726,276.409790 225.072174,277.502594 
	C225.723877,276.371796 226.655838,275.312744 226.967621,274.094971 
	C227.575897,271.718994 227.837280,269.254242 228.610077,266.080475 
M278.391632,249.080994 
	C279.546112,250.252899 280.613098,251.536697 281.898163,252.541611 
	C282.412018,252.943436 283.818756,253.064392 284.093567,252.725281 
	C284.608734,252.089569 285.076233,250.660904 284.725098,250.197861 
	C282.098450,246.734070 279.553070,242.994263 273.024628,242.888306 
	C275.110626,245.380585 276.461090,246.994049 278.391632,249.080994 
M226.004257,242.477890 
	C223.199646,244.769608 220.325287,246.984589 217.649033,249.417496 
	C217.110794,249.906799 217.079697,251.286911 217.297211,252.132156 
	C217.403793,252.546356 218.677246,252.997955 219.317719,252.877045 
	C221.733337,252.421082 226.809631,245.105804 226.004257,242.477890 
z"/>
<path fill="#E9F5F3" opacity="1.000000" stroke="none" 
	d="
M244.400986,268.447205 
	C244.978561,270.817719 245.370148,272.853790 245.761749,274.889832 
	C244.106598,273.453827 241.844925,272.335449 240.898544,270.528259 
	C236.145340,261.451782 234.663177,251.684814 235.687531,241.511490 
	C235.961807,238.787689 236.141068,236.054321 236.458633,232.166016 
	C233.742752,233.687424 232.083710,234.616791 230.902710,235.278366 
	C229.997147,233.658676 229.134995,231.993622 228.160782,230.396957 
	C225.095215,225.372620 223.668900,219.998199 225.241135,214.224976 
	C225.577133,212.991241 227.254807,212.122894 228.314392,211.086212 
	C228.654984,212.357269 229.230347,213.618927 229.281677,214.901550 
	C229.360626,216.874908 228.833694,218.883118 228.996277,220.840622 
	C229.568649,227.731735 231.672867,229.060394 238.378372,228.761398 
	C246.826538,228.384735 255.315979,228.423752 263.766571,228.780838 
	C270.048828,229.046280 271.730164,228.342239 272.761078,222.070969 
	C273.177185,219.539810 272.349365,216.826599 272.421692,214.205460 
	C272.450897,213.148071 273.374664,212.115356 273.891296,211.071381 
	C274.700928,211.749451 275.948792,212.273483 276.249939,213.130249 
	C278.391052,219.222275 277.004761,224.876648 273.832855,230.285568 
	C272.810089,232.029587 272.064758,233.936310 271.197052,235.759109 
	C269.796448,234.937378 267.908936,233.829941 266.038055,232.732285 
	C266.038055,239.312317 266.848053,245.490280 265.832092,251.351730 
	C264.575073,258.603699 261.919678,265.632324 259.560669,272.654053 
	C259.201843,273.722076 257.181763,274.231995 255.930084,275.000061 
	C255.977829,273.541138 255.528549,271.812378 256.151123,270.665466 
	C261.610046,260.609100 262.897034,249.904984 261.513916,238.737640 
	C261.124329,235.592361 260.311981,232.511108 256.206421,232.981216 
	C252.356247,233.422104 252.528320,236.413162 252.555923,239.398804 
	C252.659073,250.554367 252.658722,261.711823 252.545929,272.867096 
	C252.533630,274.084167 251.542953,275.291412 251.006073,276.503204 
	C250.374695,275.239197 249.212112,273.982239 249.195282,272.710114 
	C249.049850,261.721985 249.148621,250.730911 249.085037,239.741226 
	C249.068008,236.795975 249.450500,233.221741 245.119278,232.979538 
	C240.747330,232.735046 240.314774,236.000488 239.989212,239.388580 
	C239.034088,249.328537 239.730927,258.989624 244.400986,268.447205 
z"/>
<path fill="#F1F9F8" opacity="1.000000" stroke="none" 
	d="
M240.686279,217.685715 
	C241.469894,216.053040 242.006851,214.685898 242.530945,213.313812 
	C242.899567,212.348770 243.250641,211.377029 243.609558,210.408295 
	C244.506210,210.892868 245.640366,211.174530 246.257980,211.897476 
	C248.800003,214.873123 253.057373,214.748367 255.788422,211.822372 
	C256.411469,211.154831 258.201996,211.576935 259.455170,211.497513 
	C257.527008,215.825211 262.370239,217.543793 263.051392,220.859711 
	C263.177246,221.472351 263.122101,222.122177 263.142426,222.574905 
	C254.974030,222.574905 246.961441,222.574905 238.349808,222.574905 
	C239.041321,221.040222 239.737747,219.494675 240.686279,217.685715 
z"/>
<path fill="#EEF7F6" opacity="1.000000" stroke="none" 
	d="
M273.583832,259.901215 
	C278.593781,264.014618 279.056610,269.781616 278.882965,275.697113 
	C278.865784,276.282623 277.956879,277.169891 277.323975,277.314758 
	C276.721863,277.452515 275.375397,276.879059 275.320770,276.484650 
	C274.568512,271.055115 273.983215,265.602448 273.583832,259.901215 
z"/>
<path fill="#EEF7F6" opacity="1.000000" stroke="none" 
	d="
M228.426178,266.453369 
	C227.837280,269.254242 227.575897,271.718994 226.967621,274.094971 
	C226.655838,275.312744 225.723877,276.371796 225.072174,277.502594 
	C224.372726,276.409790 222.939728,275.196228 223.096451,274.244385 
	C223.926239,269.204407 225.155701,264.230225 226.246643,259.233246 
	C227.034454,259.343262 227.822266,259.453278 228.610077,259.563293 
	C228.610077,261.735687 228.610077,263.908081 228.426178,266.453369 
z"/>
<path fill="#EEF7F6" opacity="1.000000" stroke="none" 
	d="
M278.101562,248.844238 
	C276.461090,246.994049 275.110626,245.380585 273.024628,242.888306 
	C279.553070,242.994263 282.098450,246.734070 284.725098,250.197861 
	C285.076233,250.660904 284.608734,252.089569 284.093567,252.725281 
	C283.818756,253.064392 282.412018,252.943436 281.898163,252.541611 
	C280.613098,251.536697 279.546112,250.252899 278.101562,248.844238 
z"/>
<path fill="#EBF6F5" opacity="1.000000" stroke="none" 
	d="
M226.367615,242.451355 
	C226.809631,245.105804 221.733337,252.421082 219.317719,252.877045 
	C218.677246,252.997955 217.403793,252.546356 217.297211,252.132156 
	C217.079697,251.286911 217.110794,249.906799 217.649033,249.417496 
	C220.325287,246.984589 223.199646,244.769608 226.367615,242.451355 
z"/>
</svg>